<svg width="60" height="60" viewBox="0 0 60 60" fill="none" xmlns="http://www.w3.org/2000/svg">
<g id="gg:gym">
<path id="Vector" d="M50.685 24.6725L42.08 12.385L46.1775 9.5175L54.78 21.805L50.685 24.6725ZM45.975 31.0225L41.675 24.875L21.195 39.215L25.495 45.3575L21.4 48.2275L9.92999 31.8425L14.025 28.975L18.325 35.12L38.805 20.78L34.505 14.635L38.6 11.7675L50.07 28.15L45.975 31.02V31.0225ZM51.9125 17.7075L56.0075 14.84L53.14 10.745L49.045 13.6125L51.9125 17.7075ZM17.92 47.615L9.31499 35.3275L5.21999 38.195L13.8225 50.4825L17.92 47.615ZM10.955 46.3875L6.85999 49.255L3.99249 45.16L8.08749 42.2925L10.955 46.3875Z" fill="#E6FE58"/>
</g>
</svg>
