<svg width="98" height="98" viewBox="0 0 98 98" fill="none" xmlns="http://www.w3.org/2000/svg">
<g id="Container">
<path id="Ellipse" d="M98 49C98 76.062 76.062 98 49 98C21.938 98 0 76.062 0 49C0 21.938 21.938 0 49 0C76.062 0 98 21.938 98 49ZM9.8 49C9.8 70.6496 27.3504 88.2 49 88.2C70.6496 88.2 88.2 70.6496 88.2 49C88.2 27.3504 70.6496 9.8 49 9.8C27.3504 9.8 9.8 27.3504 9.8 49Z" fill="#F5F5F5"/>
<path id="Ellipse_2" d="M49 0C58.0367 1.07762e-07 66.8974 2.49897 74.6024 7.22063C82.3075 11.9423 88.5567 18.7027 92.6593 26.7545C96.7619 34.8062 98.558 43.8357 97.849 52.8445C97.1399 61.8533 93.9535 70.4906 88.6418 77.8015C83.3302 85.1123 76.1003 90.8119 67.7515 94.2701C59.4027 97.7283 50.2602 98.8104 41.3347 97.3967C32.4093 95.9831 24.0486 92.1288 17.177 86.2599C10.3055 80.391 5.19073 72.7362 2.39823 64.1418L11.7186 61.1135C13.9526 67.989 18.0444 74.1128 23.5416 78.8079C29.0389 83.503 35.7274 86.5865 42.8678 87.7174C50.0081 88.8483 57.3221 87.9826 64.0012 85.2161C70.6802 82.4495 76.4642 77.8899 80.7135 72.0412C84.9628 66.1925 87.512 59.2827 88.0792 52.0756C88.6464 44.8685 87.2095 37.645 83.9275 31.2036C80.6454 24.7622 75.646 19.3538 69.4819 15.5765C63.3179 11.7992 56.2294 9.8 49 9.8V0Z" fill="url(#paint0_linear_203_77)"/>
</g>
<defs>
<linearGradient id="paint0_linear_203_77" x1="-1.64972e-07" y1="49.4667" x2="98" y2="49.4667" gradientUnits="userSpaceOnUse">
<stop stop-color="#73EC48"/>
<stop offset="0.526042" stop-color="#F4F755"/>
<stop offset="1" stop-color="#99F63B"/>
</linearGradient>
</defs>
</svg>
